<?xml version="1.0" encoding="iso-8859-1"?>
<!-- Generator: Adobe Illustrator 19.0.0, SVG Export Plug-In . SVG Version: 6.00 Build 0)  -->
<svg version="1.1" id="Layer_1" xmlns="http://www.w3.org/2000/svg" xmlns:xlink="http://www.w3.org/1999/xlink" x="0px" y="0px"
	 viewBox="0 0 512 512" style="enable-background:new 0 0 512 512;" xml:space="preserve">
<g>
	<g>
		<path d="M367.019,247.601c-1.353-7.862-8.164-13.862-16.411-13.862H267.13v-75.685c0-23.076-10.218-45.794-28.043-62.326
			c-3.446-3.207-5.348-7.554-5.348-12.25V33.391h16.696c9.217,0,16.696-7.479,16.696-16.696S259.652,0,250.435,0H116.87
			c-9.217,0-16.696,7.479-16.696,16.696s7.479,16.696,16.696,16.696h16.696v50.087c0,4.696-1.902,9.043-5.358,12.25
			c-17.815,16.532-28.033,39.25-28.033,62.326v75.685H16.696C7.479,233.739,0,241.218,0,250.435c0,9.217,7.479,16.696,16.696,16.696
			h16.696v50.087c0,4.696-1.902,9.043-5.358,12.25C10.218,346,0,368.718,0,391.794v92.38c0,9.217,7.479,16.696,16.696,16.696
			h133.565c9.217,0,16.696-7.479,16.696-16.696v-92.38c0-23.076-10.218-45.794-28.043-62.326c-3.446-3.207-5.348-7.554-5.348-12.25
			V267.13h100.174v50.087c0,4.696-1.902,9.043-5.358,12.25c-17.815,16.532-28.033,39.25-28.033,62.326v92.38
			c0,9.217,7.479,16.696,16.696,16.696h71.463c-26.948-27.172-43.637-64.534-43.637-105.739
			C244.87,320.767,299.047,260.526,367.019,247.601z"/>
	</g>
</g>
<g>
	<g>
		<path d="M395.13,278.261c-64.445,0-116.87,52.424-116.87,116.87S330.685,512,395.13,512S512,459.576,512,395.13
			S459.576,278.261,395.13,278.261z M428.522,411.826c-9.217,0-16.696-7.479-16.696-16.696c0-9.206-7.49-16.696-16.696-16.696
			c-9.217,0-16.696-7.479-16.696-16.696s7.479-16.696,16.696-16.696c27.619,0,50.087,22.468,50.087,50.087
			C445.217,404.348,437.739,411.826,428.522,411.826z"/>
	</g>
</g>
<g>
</g>
<g>
</g>
<g>
</g>
<g>
</g>
<g>
</g>
<g>
</g>
<g>
</g>
<g>
</g>
<g>
</g>
<g>
</g>
<g>
</g>
<g>
</g>
<g>
</g>
<g>
</g>
<g>
</g>
</svg>
