<?xml version="1.0" encoding="utf-8"?>
<!-- Generator: Adobe Illustrator 22.1.0, SVG Export Plug-In . SVG Version: 6.00 Build 0)  -->
<svg version="1.1" id="Layer_1" xmlns="http://www.w3.org/2000/svg" xmlns:xlink="http://www.w3.org/1999/xlink" x="0px" y="0px"
	 viewBox="0 0 512 512" style="enable-background:new 0 0 512 512;" xml:space="preserve">
<style type="text/css">
	.st0{fill:#FFFFFF;}
</style>
<g>
	<g>
		<path class="st0" d="M495.3,189.2H473V473c0,5.9-1.2,11.4-3.1,16.7h25.3c9.2,0,16.7-7.5,16.7-16.7V205.9
			C512,196.7,504.5,189.2,495.3,189.2z"/>
	</g>
</g>
<g>
	<g>
		<path class="st0" d="M39,473V189.2H16.7c-9.2,0-16.7,7.5-16.7,16.7V473c0,9.2,7.5,16.7,16.7,16.7H42C40.2,484.5,39,478.9,39,473z"
			/>
	</g>
</g>
<g>
	<g>
		<path class="st0" d="M423,22.3h-66.8c-9.2,0-16.7,7.5-16.7,16.7V89h-33.4V39c0-9.2-7.5-16.7-16.7-16.7h-66.8
			c-9.2,0-16.7,7.5-16.7,16.7V89h-33.4V39c0-9.2-7.5-16.7-16.7-16.7H89c-9.2,0-16.7,7.5-16.7,16.7V473c0,9.2,7.5,16.7,16.7,16.7H423
			c9.2,0,16.7-7.5,16.7-16.7V39C439.7,29.7,432.2,22.3,423,22.3z M155.8,205.9c0-18.4,15-33.4,33.4-33.4s33.4,15,33.4,33.4v33.4
			h-66.8L155.8,205.9L155.8,205.9z M239.3,456.3h-66.8v-83.5c0-40.3,28.7-74,66.8-81.8L239.3,456.3L239.3,456.3z M339.5,456.3h-66.8
			V291.1c38.1,7.8,66.8,41.5,66.8,81.8V456.3z M356.2,239.3h-66.8v-33.4c0-18.4,15-33.4,33.4-33.4s33.4,15,33.4,33.4L356.2,239.3
			L356.2,239.3z"/>
	</g>
</g>
</svg>
