<?xml version="1.0" encoding="iso-8859-1"?>
<!-- Generator: Adobe Illustrator 19.0.0, SVG Export Plug-In . SVG Version: 6.00 Build 0)  -->
<svg version="1.1" id="Layer_1" xmlns="http://www.w3.org/2000/svg" xmlns:xlink="http://www.w3.org/1999/xlink" x="0px" y="0px"
	 viewBox="0 0 512 512" style="enable-background:new 0 0 512 512;" xml:space="preserve">
<g>
	<g>
		<path d="M406.261,203.424V94.609c0-15.348-12.478-27.826-27.826-27.826h-38.956V16.696C339.478,7.479,332,0,322.783,0H189.217
			C180,0,172.522,7.479,172.522,16.696v50.087h-50.087c-9.217,0-16.696,7.479-16.696,16.696v119.946
			c-19.391,6.914-33.391,25.274-33.391,47.01v33.391c0,9.217,7.479,16.696,16.696,16.696h83.478v111.304h66.783V395.13
			c0-9.217,7.479-16.696,16.696-16.696s16.696,7.479,16.696,16.696v16.696h66.783V300.522h83.478
			c9.217,0,16.696-7.479,16.696-16.696v-33.391C439.652,228.698,425.652,210.338,406.261,203.424z M272.696,100.174h33.391v50.087
			c0,9.217,7.479,16.696,16.696,16.696c9.217,0,16.696-7.479,16.696-16.696v-50.087h33.391v100.174H272.696V100.174z
			 M139.13,100.174h33.391v50.087c0,9.217,7.479,16.696,16.696,16.696s16.696-7.479,16.696-16.696v-50.087h33.391v100.174H139.13
			V100.174z M105.739,267.13v-16.696c0-9.206,7.49-16.696,16.696-16.696h116.87v33.391H105.739z M272.696,328.348
			c0,9.217-7.479,16.696-16.696,16.696s-16.696-7.479-16.696-16.696v-27.826h33.391V328.348z M406.261,267.13H272.696v-33.391
			h116.87c9.206,0,16.696,7.49,16.696,16.696V267.13z"/>
	</g>
</g>
<g>
	<g>
		<path d="M389.565,445.217h-267.13c-9.22,0-16.696,7.475-16.696,16.696v33.391c0,9.22,7.475,16.696,16.696,16.696h267.13
			c9.22,0,16.696-7.475,16.696-16.696v-33.391C406.261,452.693,398.786,445.217,389.565,445.217z"/>
	</g>
</g>
<g>
</g>
<g>
</g>
<g>
</g>
<g>
</g>
<g>
</g>
<g>
</g>
<g>
</g>
<g>
</g>
<g>
</g>
<g>
</g>
<g>
</g>
<g>
</g>
<g>
</g>
<g>
</g>
<g>
</g>
</svg>
