<?xml version="1.0" encoding="utf-8"?>
<!-- Generator: Adobe Illustrator 22.1.0, SVG Export Plug-In . SVG Version: 6.00 Build 0)  -->
<svg version="1.1" id="Capa_1" xmlns="http://www.w3.org/2000/svg" xmlns:xlink="http://www.w3.org/1999/xlink" x="0px" y="0px"
	 viewBox="0 0 54.3 54.3" style="enable-background:new 0 0 54.3 54.3;" xml:space="preserve">
<style type="text/css">
	.st0{fill:#FFFFFF;}
</style>
<g>
	<path class="st0" d="M53.6,25.9C48.1,16.5,38,10.6,27.2,10.6s-21,5.8-26.4,15.3L0,27.2l0.7,1.3c5.4,9.4,15.6,15.3,26.4,15.3
		s21-5.8,26.4-15.3l0.7-1.3L53.6,25.9z M5.8,27.2c2.2-3.3,5.1-6,8.5-8c-1.2,2.1-1.9,4.6-1.9,7.2c0,3.8,1.4,7.2,3.8,9.8
		C12,34.2,8.4,31.1,5.8,27.2z M37.8,36.3c2.4-2.6,3.9-6.1,3.9-10c0-1-0.1-2-0.3-2.9c-0.4,1.3-1.2,2.4-2.2,3.2
		c-0.8,0.6-1.7,1.1-2.6,1.4c-0.6,0.2-1.2,0.3-1.9,0.3c-3.9,0-7.1-3.2-7.1-7.1c0-1.6,0.5-3.1,1.4-4.3c0.3-0.4,0.6-0.7,1-1.1
		c1.5,0.2,3.1,0.5,4.5,1c1.8,0.6,3.5,1.3,5.2,2.2c0.7,0.4,1.4,0.8,2,1.3c2.6,1.8,4.9,4.1,6.7,6.9C45.8,31.2,42.1,34.3,37.8,36.3z"/>
</g>
</svg>
