<?xml version="1.0" encoding="iso-8859-1"?>
<!-- Generator: Adobe Illustrator 19.0.0, SVG Export Plug-In . SVG Version: 6.00 Build 0)  -->
<svg version="1.1" id="Layer_1" xmlns="http://www.w3.org/2000/svg" xmlns:xlink="http://www.w3.org/1999/xlink" x="0px" y="0px"
	 viewBox="0 0 512 512" style="enable-background:new 0 0 512 512;" xml:space="preserve">
<g>
	<g>
		<path d="M256,0c-27.619,0-50.087,22.468-50.087,50.087c0,27.619,22.468,50.087,50.087,50.087s50.087-22.468,50.087-50.087
			C306.087,22.468,283.619,0,256,0z"/>
	</g>
</g>
<g>
	<g>
		<path d="M456.348,200.348c-27.619,0-50.087,22.468-50.087,50.087c0,27.619,22.468,50.087,50.087,50.087
			c27.619,0,50.087-22.468,50.087-50.087C506.435,222.816,483.967,200.348,456.348,200.348z"/>
	</g>
</g>
<g>
	<g>
		<path d="M55.652,200.348c-27.619,0-50.087,22.468-50.087,50.087c0,27.619,22.468,50.087,50.087,50.087
			c27.619,0,50.087-22.468,50.087-50.087C105.739,222.816,83.271,200.348,55.652,200.348z"/>
	</g>
</g>
<g>
	<g>
		<path d="M433.097,73.347c-0.011,0-0.011,0-0.011-0.011c-19.544-19.501-51.316-19.511-70.837,0.011
			c-19.533,19.533-19.533,51.305,0,70.837c19.521,19.541,51.297,19.529,70.849,0C452.608,124.652,452.608,92.88,433.097,73.347z"/>
	</g>
</g>
<g>
	<g>
		<path d="M149.75,73.337c-19.533-19.489-51.282-19.511-70.837,0c0,0.011,0,0.011-0.011,0.011
			c-19.511,19.533-19.511,51.305,0.011,70.837c19.523,19.543,51.329,19.528,70.837-0.001
			C169.283,124.652,169.283,92.88,149.75,73.337z"/>
	</g>
</g>
<g>
	<g>
		<path d="M55.652,378.435c-9.217,0-16.696,7.479-16.696,16.696v100.174c0,9.217,7.479,16.696,16.696,16.696h66.783
			c9.217,0,16.696-7.479,16.696-16.696v-33.391C139.13,415.881,101.684,378.435,55.652,378.435z"/>
	</g>
</g>
<g>
	<g>
		<path d="M456.348,378.435c-46.032,0-83.478,37.446-83.478,83.478v33.391c0,9.217,7.479,16.696,16.696,16.696h66.783
			c9.217,0,16.696-7.479,16.696-16.696V395.13C473.043,385.913,465.565,378.435,456.348,378.435z"/>
	</g>
</g>
<g>
	<g>
		<path d="M363.784,390.841c-12.593-12.99-27.57-23.594-44.11-31.403c31.978-20.874,53.196-56.914,53.196-97.872
			c0-64.445-52.424-116.87-116.87-116.87s-116.87,52.424-116.87,116.87c0,40.958,21.218,76.998,53.197,97.873
			c-16.54,7.808-31.517,18.413-44.11,31.403c15.175,19.718,24.304,44.32,24.304,71.071v33.391c0,5.882-1.205,11.448-3.076,16.696
			h173.111c-1.871-5.248-3.076-10.813-3.076-16.696v-33.391C339.478,435.162,348.607,410.559,363.784,390.841z M267.794,273.369
			c6.521-6.521,17.097-6.511,23.62-0.011c6.521,6.521,6.521,17.097,0.011,23.62c-9.456,9.456-22.033,14.663-35.413,14.663
			c-0.011,0-0.011,0-0.011,0c-13.391,0-25.967-5.207-35.424-14.663c-6.511-6.521-6.511-17.097,0.011-23.62
			c6.521-6.5,17.097-6.511,23.62,0.011C250.489,279.674,261.511,279.674,267.794,273.369z M222.609,211.478
			c9.22,0,16.696,7.475,16.696,16.696c0,9.22-7.475,16.696-16.696,16.696s-16.696-7.475-16.696-16.696
			C205.913,218.953,213.388,211.478,222.609,211.478z M256,438.304l-49.003-49.003c14.922-6.925,31.499-10.867,49.003-10.867
			s34.081,3.941,49.003,10.867L256,438.304z M289.391,244.87c-9.22,0-16.696-7.475-16.696-16.696c0-9.22,7.475-16.696,16.696-16.696
			s16.696,7.475,16.696,16.696C306.087,237.394,298.612,244.87,289.391,244.87z"/>
	</g>
</g>
<g>
</g>
<g>
</g>
<g>
</g>
<g>
</g>
<g>
</g>
<g>
</g>
<g>
</g>
<g>
</g>
<g>
</g>
<g>
</g>
<g>
</g>
<g>
</g>
<g>
</g>
<g>
</g>
<g>
</g>
</svg>
