<?xml version="1.0" encoding="iso-8859-1"?>
<!-- Generator: Adobe Illustrator 19.0.0, SVG Export Plug-In . SVG Version: 6.00 Build 0)  -->
<svg version="1.1" id="Layer_1" xmlns="http://www.w3.org/2000/svg" xmlns:xlink="http://www.w3.org/1999/xlink" x="0px" y="0px"
	 viewBox="0 0 512 512" style="enable-background:new 0 0 512 512;" xml:space="preserve">
<g>
	<g>
		<path d="M489.739,478.609h-22.704l-39.049-84.686c48.513-27.237,78.448-66.172,78.448-110.097c0-4.228-1.677-8.591-4.892-11.804
			L301.068,71.546c3.124-6.529,5.019-13.751,5.019-21.459C306.087,22.468,283.619,0,256,0s-50.087,22.468-50.087,50.087
			c0,7.709,1.894,14.93,5.019,21.459L10.457,272.022c-3.279,3.278-4.892,7.743-4.892,11.804c0,43.925,29.935,82.859,78.448,110.097
			l-39.049,84.686H22.261c-9.217,0-16.696,7.479-16.696,16.696c0,9.217,7.479,16.696,16.696,16.696h66.783
			c9.217,0,16.696-7.479,16.696-16.696c0-9.217-7.479-16.696-16.696-16.696h-7.307l32.386-70.239
			c40.086,16.277,88.801,25.717,141.877,25.717s101.791-9.44,141.877-25.717l32.386,70.239h-7.307
			c-9.217,0-16.696,7.479-16.696,16.696c0,9.217,7.479,16.696,16.696,16.696h66.783c9.217,0,16.696-7.479,16.696-16.696
			C506.435,486.087,498.956,478.609,489.739,478.609z M256,33.391c9.206,0,16.696,7.49,16.696,16.696
			c0,10.824-9.134,16.696-16.696,16.696c-9.128,0-16.696-7.408-16.696-16.696C239.304,40.881,246.794,33.391,256,33.391z
			 M62.565,267.13l148.285-148.284L142.475,267.13H62.565z M306.087,317.217c0,9.206-7.49,16.696-16.696,16.696h-66.783
			c-9.206,0-16.696-7.49-16.696-16.696v-16.696h100.174V317.217z M179.247,267.13L256,100.675l76.753,166.456H179.247z
			 M369.525,267.13l-68.375-148.284L449.435,267.13H369.525z"/>
	</g>
</g>
<g>
</g>
<g>
</g>
<g>
</g>
<g>
</g>
<g>
</g>
<g>
</g>
<g>
</g>
<g>
</g>
<g>
</g>
<g>
</g>
<g>
</g>
<g>
</g>
<g>
</g>
<g>
</g>
<g>
</g>
</svg>
