<?xml version="1.0" encoding="utf-8"?>
<!-- Generator: Adobe Illustrator 23.0.2, SVG Export Plug-In . SVG Version: 6.00 Build 0)  -->
<svg version="1.1" id="Capa_1" xmlns="http://www.w3.org/2000/svg" xmlns:xlink="http://www.w3.org/1999/xlink" x="0px" y="0px"
	 viewBox="0 0 301 301" style="enable-background:new 0 0 301 301;" xml:space="preserve">
<style type="text/css">
	.st0{fill:#FFFFFF;}
</style>
<path class="st0" d="M291,150.1h-8.4c0.4-0.7,0.7-1.6,0.7-2.5c0-12.1-6.8-22.6-16.8-27.9c-2-1.1-4.5-0.7-6.1,0.9l-14.1,14.1
	c-2,2-5.3,2-7.3,0l-15.1-15.1c-2.3-2.3-5.5-3.7-8.8-3.7c-5.1,0-9.2,4.1-9.2,9.2v22.4c0,0.9,0.2,1.7,0.7,2.5h-30.9
	c13.4-13,21.8-31.1,21.8-51.2c0-39.3-32-71.2-71.2-71.2s-71.2,32-71.2,71.2c0,13.1,3.6,25.4,9.8,36C37.8,117.6,20,87.6,20,53.4
	c0-5.5-4.5-10-10-10s-10,4.5-10,10c0,20.2,5.2,39.3,14.3,55.9v154.1c0,5.5,4.5,10,10,10c5.5,0,10-4.5,10-10V135.9
	c21,21,49.9,34,81.8,34.1v93.3c0,5.5,4.5,10,10,10s10-4.5,10-10v-93.3h81.6v93.3c0,5.5,4.5,10,10,10c5.5,0,10-4.5,10-10v-93.3H291
	c5.5,0,10-4.5,10-10C301,154.6,296.5,150.1,291,150.1z M126.1,47.6c28.3,0,51.2,23,51.2,51.2s-23,51.2-51.2,51.2s-51.2-23-51.2-51.2
	C74.8,70.6,97.8,47.6,126.1,47.6z"/>
</svg>
