<?xml version="1.0" encoding="iso-8859-1"?>
<!-- Generator: Adobe Illustrator 19.0.0, SVG Export Plug-In . SVG Version: 6.00 Build 0)  -->
<svg version="1.1" id="Layer_1" xmlns="http://www.w3.org/2000/svg" xmlns:xlink="http://www.w3.org/1999/xlink" x="0px" y="0px"
	 viewBox="0 0 512 512" style="enable-background:new 0 0 512 512;" xml:space="preserve">
<g>
	<g>
		<polygon points="5.168,135.952 5.168,351.016 213.719,351.016 256,305.739 298.281,351.016 506.832,351.016 506.832,135.952 		"/>
	</g>
</g>
<g>
	<g>
		<path d="M298.281,384.407h-14.505l-9.899-10.602L256,354.662l-17.877,19.143l-9.899,10.602h-14.505H91.401
			c13.743,29.281,30.898,54.82,50.698,75.229C175.333,493.893,214.721,512,256,512c41.279,0,80.666-18.107,113.899-52.362
			c19.801-20.41,36.957-45.949,50.7-75.231H298.281z M305.753,450.783h-99.506v-33.391h99.506V450.783z"/>
	</g>
</g>
<g>
	<g>
		<path d="M383.922,43.189C350.349,14.531,307.31,0,256,0s-94.349,14.531-127.922,43.189C109.639,58.93,94.297,79.041,82.621,102.56
			h346.758C417.703,79.041,402.361,58.93,383.922,43.189z"/>
	</g>
</g>
<g>
</g>
<g>
</g>
<g>
</g>
<g>
</g>
<g>
</g>
<g>
</g>
<g>
</g>
<g>
</g>
<g>
</g>
<g>
</g>
<g>
</g>
<g>
</g>
<g>
</g>
<g>
</g>
<g>
</g>
</svg>
