<?xml version="1.0" encoding="iso-8859-1"?>
<!-- Generator: Adobe Illustrator 18.0.0, SVG Export Plug-In . SVG Version: 6.00 Build 0)  -->
<!DOCTYPE svg PUBLIC "-//W3C//DTD SVG 1.1//EN" "http://www.w3.org/Graphics/SVG/1.1/DTD/svg11.dtd">
<svg version="1.1" id="Capa_1" xmlns="http://www.w3.org/2000/svg" xmlns:xlink="http://www.w3.org/1999/xlink" x="0px" y="0px"
	 viewBox="0 0 304.473 304.473" style="enable-background:new 0 0 304.473 304.473;" xml:space="preserve">
<g>
	<path d="M60.6,91.161h183.272c7.209-1.093,12.74-7.298,12.74-14.812c0-19.315-11.97-36.83-33.704-49.319
		C203.789,16.045,178.69,9.995,152.236,9.995s-51.552,6.05-70.671,17.035C59.83,39.519,47.86,57.034,47.86,76.349
		C47.86,83.863,53.391,90.069,60.6,91.161z"/>
	<path d="M110.733,234.246c3.927-11.79-2.447-24.531-14.236-28.457l-19.209-6.398l29.386-88.23h-31.62l-26.229,78.75l-19.208-6.398
		c-11.792-3.928-24.53,2.447-28.457,14.236c-3.927,11.79,2.447,24.531,14.236,28.457l66.881,22.275
		C94.069,252.41,106.808,246.032,110.733,234.246z"/>
	<path d="M248.979,264.478h-81.743V111.161h-30v153.317H55.493c-8.284,0-15,6.716-15,15c0,8.284,6.716,15,15,15h193.486
		c8.284,0,15-6.716,15-15C263.979,271.194,257.264,264.478,248.979,264.478z"/>
	<path d="M303.314,197.514c-3.926-11.79-16.666-18.161-28.456-14.238l-19.209,6.398l-26.15-78.512h-31.62l29.307,87.992
		l-19.209,6.398c-11.79,3.926-18.164,16.667-14.237,28.456c3.927,11.794,16.67,18.162,28.456,14.238l66.882-22.276
		C300.867,222.044,307.241,209.303,303.314,197.514z"/>
</g>
<g>
</g>
<g>
</g>
<g>
</g>
<g>
</g>
<g>
</g>
<g>
</g>
<g>
</g>
<g>
</g>
<g>
</g>
<g>
</g>
<g>
</g>
<g>
</g>
<g>
</g>
<g>
</g>
<g>
</g>
</svg>
