<?xml version="1.0" encoding="iso-8859-1"?>
<!-- Generator: Adobe Illustrator 18.1.1, SVG Export Plug-In . SVG Version: 6.00 Build 0)  -->
<svg version="1.1" id="Capa_1" xmlns="http://www.w3.org/2000/svg" xmlns:xlink="http://www.w3.org/1999/xlink" x="0px" y="0px"
	 viewBox="0 0 333.352 333.352" style="enable-background:new 0 0 333.352 333.352;" xml:space="preserve">
<g>
	<g id="Layer_5_27_">
		<g>
			<path d="M85.942,229.47c-15.223-2.195-25.775-16.311-23.579-31.531c2.197-15.228,16.308-25.776,31.53-23.581
				c15.222,2.194,25.786,16.304,23.589,31.531C115.286,221.11,101.163,231.665,85.942,229.47z"/>
			<path d="M234.108,250.962c-15.287-2.206-25.886-16.382-23.681-31.665c2.206-15.292,16.377-25.885,31.663-23.68
				c15.284,2.205,25.894,16.372,23.688,31.663C263.573,242.566,249.392,253.166,234.108,250.962z"/>
			<path d="M308.562,91.203L291.58,42.678c-4.811-13.84-14.289-25.961-45.295-30.432L163.23,0.263
				C148.729-1.829,135.209,8.89,124.783,20.2c-8.306,9.009-22.394,29.371-29.862,38.861c-3.608,4.587-18.521,23.85-39.652,28.581
				c-14.297,3.2-33.177,14.719-35.27,29.22l-7.227,50.095c-2.093,14.499,1.781,27.171,16.28,29.262l10.261,1.479
				c2.879,0.416,3.205-1.586,3.353-2.602c3.759-26.054,28.015-44.192,54.069-40.434c26.06,3.759,44.095,28.527,40.646,52.433
				c-0.425,2.954,1.348,4.942,3.268,5.221l45.289,6.534c3.719,0.535,4.083-3.544,4.23-4.562c3.389-23.49,27.715-42.15,53.771-38.392
				c26.06,3.76,44.202,28.014,40.444,54.068c-0.146,1.016-0.281,3.045,2.684,3.472l4.248,0.614
				c14.506,2.093,20.363-9.178,22.455-23.677l5.668-39.294C325.523,128.898,313.373,105.041,308.562,91.203z M248.859,107.676
				C222,103.802,127.816,90.214,127.816,90.214c-19.303-2.784-9.893-15.284-8.951-17.562c0,0,16.145-25.321,22.053-33.393
				c12.547-17.131,20.26-18.634,32.525-16.865c0,0,50.973,7.354,65.001,9.376c14.697,2.12,17.974,18.226,17.974,18.226l8.154,40.064
				C264.571,90.061,270.718,110.83,248.859,107.676z"/>
			<g>
				<path d="M166.241,300.223c-1.65,0-2.808-1.336-2.572-2.969l3.803-26.354c0.235-1.633,1.765-2.776,3.397-2.541l15.368,2.217
					c1.633,0.235,3.162-0.908,3.397-2.541l2.163-14.99c0.235-1.633-0.908-3.162-2.541-3.397l-65.222-9.408
					c-1.633-0.235-3.162,0.907-3.397,2.541l-2.162,14.99c-0.235,1.633,0.908,3.161,2.541,3.397l15.368,2.216
					c1.633,0.235,2.776,1.765,2.541,3.397l-4.396,30.473c-0.235,1.633-1.778,2.969-3.428,2.969H21.396c-1.65,0-3,1.351-3,3v27.129
					c0,1.65,1.35,3,3,3h251.276c1.649,0,3-1.35,3-3v-27.129c0-1.649-1.351-3-3-3L166.241,300.223L166.241,300.223z"/>
			</g>
		</g>
	</g>
</g>
<g>
</g>
<g>
</g>
<g>
</g>
<g>
</g>
<g>
</g>
<g>
</g>
<g>
</g>
<g>
</g>
<g>
</g>
<g>
</g>
<g>
</g>
<g>
</g>
<g>
</g>
<g>
</g>
<g>
</g>
</svg>
