<?xml version="1.0" encoding="utf-8"?>
<!-- Generator: Adobe Illustrator 23.0.2, SVG Export Plug-In . SVG Version: 6.00 Build 0)  -->
<svg version="1.1" id="Layer_1" xmlns="http://www.w3.org/2000/svg" xmlns:xlink="http://www.w3.org/1999/xlink" x="0px" y="0px"
	 viewBox="0 0 512 512" style="enable-background:new 0 0 512 512;" xml:space="preserve">
<style type="text/css">
	.st0{fill:#FFFFFF;}
</style>
<g>
	<g>
		<path class="st0" d="M473.7,406.1c-14.9-0.9-29.9,4.4-40.9,14.6c-9.4,8.8-24.2,8.8-33.6,0c-21-19.5-53.8-19.5-74.8,0
			c-9.4,8.8-24.2,8.8-33.6,0c-21-19.5-53.8-19.5-74.8,0c-9.4,8.8-24.2,8.8-33.6,0c-21-19.5-53.8-19.5-74.8,0
			c-9.4,8.8-24.2,8.8-33.6,0c-9.3-8.6-21.3-13.8-33.9-14.6c-8.8-0.5-16.1,6.5-16.1,15.1v51.5c0,8.3,6.8,15.1,15.1,15.1h433.4
			c8.3,0,15.1-6.8,15.1-15.1v-51.5C487.8,413.2,481.6,406.6,473.7,406.1z"/>
	</g>
</g>
<g>
	<g>
		<path class="st0" d="M457.6,276.5v-96.1c0-58.4-47.5-105.8-105.8-105.8h-10.1c-8.3,0-15.1,6.8-15.1,15.1v15.1h-30.2V89.7
			c0-8.3-6.8-15.1-15.1-15.1c-8.3,0-15.1,6.8-15.1,15.1v60.5c0,8.3,6.8,15.1,15.1,15.1s15.1-6.8,15.1-15.1V135h30.2v60.5H201.2
			L151.4,54.5c-6.4-18.1-23.6-30.3-42.8-30.3H69.5c-8.3,0-15.1,6.8-15.1,15.1v237.2c-17.8,15.2-30.2,38.6-30.2,65.2
			c0,12.4,2.7,24.2,7.4,34.9c4.8-0.8,6.8-0.8,10.3-0.7c18.1,1.1,35.3,7.9,49.1,19.3c15.2-12.5,34.2-19.4,54.2-19.4
			c19.3,0,37.7,6.4,52.6,18.2c1.1,0,2.1,0,3.2,0c14.9-11.7,33.3-18.2,52.6-18.2c19.4,0,37.9,6.5,52.9,18.4c0.9,0,1.7,0,2.6,0
			c15-11.9,33.5-18.4,52.9-18.4c19.9,0,39,6.9,54.2,19.4c15.2-12.6,34.3-19.5,54.3-19.5c6.4,0,6.2,0.3,10,0.9
			c4.8-10.7,7.6-22.6,7.6-35C487.8,318,477.5,293.5,457.6,276.5z M60.5,316.5c9.2-17.9,27.8-30.2,49.3-30.2h292.3
			c21.5,0,40.1,12.3,49.3,30.2H60.5z"/>
	</g>
</g>
</svg>
