<?xml version="1.0" encoding="utf-8"?>
<!-- Generator: Adobe Illustrator 23.0.2, SVG Export Plug-In . SVG Version: 6.00 Build 0)  -->
<svg version="1.1" id="Capa_1" xmlns="http://www.w3.org/2000/svg" xmlns:xlink="http://www.w3.org/1999/xlink" x="0px" y="0px"
	 viewBox="0 0 304.5 304.5" style="enable-background:new 0 0 304.5 304.5;" xml:space="preserve">
<style type="text/css">
	.st0{fill:#4C1971;}
</style>
<g>
	<path class="st0" d="M60.6,91.2h183.3c7.2-1.1,12.7-7.3,12.7-14.8c0-19.3-12-36.8-33.7-49.3c-19.1-11-44.2-17-70.7-17
		S100.7,16,81.6,27C59.8,39.5,47.9,57,47.9,76.3C47.9,83.9,53.4,90.1,60.6,91.2z"/>
	<path class="st0" d="M110.7,234.2c3.9-11.8-2.4-24.5-14.2-28.5l-19.2-6.4l29.4-88.2H75.1l-26.2,78.8l-19.2-6.4
		c-11.8-3.9-24.5,2.4-28.5,14.2c-3.9,11.8,2.4,24.5,14.2,28.5l66.9,22.3C94.1,252.4,106.8,246,110.7,234.2z"/>
	<path class="st0" d="M249,264.5h-81.7V111.2h-30v153.3H55.5c-8.3,0-15,6.7-15,15s6.7,15,15,15H249c8.3,0,15-6.7,15-15
		S257.3,264.5,249,264.5z"/>
	<path class="st0" d="M303.3,197.5c-3.9-11.8-16.7-18.2-28.5-14.2l-19.2,6.4l-26.1-78.5h-31.6l29.3,88l-19.2,6.4
		c-11.8,3.9-18.2,16.7-14.2,28.5c3.9,11.8,16.7,18.2,28.5,14.2l66.9-22.3C300.9,222,307.2,209.3,303.3,197.5z"/>
</g>
</svg>
