<?xml version="1.0" encoding="utf-8"?>
<!-- Generator: Adobe Illustrator 23.0.2, SVG Export Plug-In . SVG Version: 6.00 Build 0)  -->
<svg version="1.1" id="Layer_1" xmlns="http://www.w3.org/2000/svg" xmlns:xlink="http://www.w3.org/1999/xlink" x="0px" y="0px"
	 viewBox="0 0 512 512" style="enable-background:new 0 0 512 512;" xml:space="preserve">
<style type="text/css">
	.st0{fill:#4C1971;}
</style>
<g>
	<g>
		<rect x="200.3" y="172.5" class="st0" width="111.3" height="167"/>
	</g>
</g>
<g>
	<g>
		<path class="st0" d="M495.3,172.5c9.2,0,16.7-7.5,16.7-16.7V89c0-9.2-7.5-16.7-16.7-16.7H16.7C7.5,72.3,0,79.8,0,89v66.8
			c0,9.2,7.5,16.7,16.7,16.7h16.7v33.4H16.7c-9.2,0-16.7,7.5-16.7,16.7v66.8c0,9.2,7.5,16.7,16.7,16.7h16.7v33.4H16.7
			C7.5,339.5,0,347,0,356.2V423c0,9.2,7.5,16.7,16.7,16.7h478.6c9.2,0,16.7-7.5,16.7-16.7v-66.8c0-9.2-7.5-16.7-16.7-16.7h-16.7
			v-33.4h16.7c9.2,0,16.7-7.5,16.7-16.7v-66.8c0-9.2-7.5-16.7-16.7-16.7h-16.7v-33.4H495.3L495.3,172.5z M411.8,322.8
			c0,27.6-22.5,50.1-50.1,50.1H150.3c-27.6,0-50.1-22.5-50.1-50.1V189.2c0-27.6,22.5-50.1,50.1-50.1h211.5
			c27.6,0,50.1,22.5,50.1,50.1L411.8,322.8L411.8,322.8z"/>
	</g>
</g>
<g>
	<g>
		<path class="st0" d="M361.7,172.5H345v167h16.7c9.2,0,16.7-7.5,16.7-16.7V189.2C378.4,180,370.9,172.5,361.7,172.5z"/>
	</g>
</g>
<g>
	<g>
		<path class="st0" d="M150.3,172.5c-9.2,0-16.7,7.5-16.7,16.7v133.6c0,9.2,7.5,16.7,16.7,16.7H167v-167H150.3z"/>
	</g>
</g>
</svg>
