<?xml version="1.0" encoding="utf-8"?>
<!-- Generator: Adobe Illustrator 23.0.2, SVG Export Plug-In . SVG Version: 6.00 Build 0)  -->
<svg version="1.1" id="Capa_1" xmlns="http://www.w3.org/2000/svg" xmlns:xlink="http://www.w3.org/1999/xlink" x="0px" y="0px"
	 viewBox="0 0 18.8 18.8" style="enable-background:new 0 0 18.8 18.8;" xml:space="preserve">
<style type="text/css">
	.st0{fill:#4C1971;}
</style>
<g>
	<g>
		<path class="st0" d="M6.1,13.2L6.1,13.2c-1.1,0-1.5,0.6-1.7,0.3s0.5-1.1,1.4-1C4.9,10.3,5,8.4,5.4,6C2.4,5.6,0,2.6,0,6.1
			c0,3.7,2.8,10.2,6.2,10.2c0.5,0,1-0.1,1.5-0.4C7.1,15.5,6.5,13.8,6.1,13.2z M2.8,9c-1-0.3-1.6-1-1.4-1.4s1.1-0.5,2-0.1
			s1.6,1,1.4,1.4C4.6,9.3,3.7,9.4,2.8,9z"/>
		<path class="st0" d="M12.7,6C9.4,4.8,8.1,0.3,6.8,3.9C5.6,7.4,6.1,14.4,9.3,15.5s8-4,9.2-7.5C19.8,4.5,15.9,7.1,12.7,6z M7.6,5.8
			c0.3-0.4,1.3-0.1,2.1,0.6s1.2,1.6,0.9,2S9.3,8.5,8.5,7.8C7.7,7.1,7.3,6.2,7.6,5.8z M11.9,13.5c-0.1,0.4-1,0.4-1.9,0.1
			c-0.9-0.3-1.6-0.9-1.4-1.3c0.1-0.4,0.7,0.3,1.7,0.6S12.1,13.1,11.9,13.5z M14.8,10c-1.1,0-2-0.3-2-0.8s0.9-0.9,1.9-1
			c1.1,0,2,0.3,2,0.8C16.8,9.5,15.9,9.9,14.8,10z"/>
	</g>
</g>
</svg>
